<svg width="49" height="48" viewBox="0 0 49 48" fill="none" xmlns="http://www.w3.org/2000/svg">
<path d="M38.3839 10.5125C35.7558 9.32182 32.9814 8.47714 30.1316 8C29.7416 8.68988 29.3887 9.39967 29.0745 10.1264C26.0388 9.67373 22.9517 9.67373 19.916 10.1264C19.6016 9.39974 19.2488 8.68996 18.8589 8C16.0072 8.48117 13.231 9.32785 10.6003 10.5187C5.37774 18.165 3.96198 25.6214 4.66986 32.972C7.72834 35.2082 11.1517 36.9088 14.791 38C15.6105 36.9093 16.3356 35.7523 16.9587 34.5411C15.7752 34.1037 14.6329 33.564 13.5451 32.9284C13.8314 32.7229 14.1114 32.5112 14.382 32.3057C17.5473 33.7788 21.0021 34.5425 24.5 34.5425C27.9978 34.5425 31.4526 33.7788 34.618 32.3057C34.8917 32.5268 35.1717 32.7385 35.4548 32.9284C34.3649 33.5651 33.2205 34.1058 32.035 34.5442C32.6573 35.7548 33.3825 36.9109 34.2027 38C37.8451 36.9132 41.271 35.2133 44.3301 32.9751C45.1607 24.4508 42.9112 17.0629 38.3839 10.5125ZM17.8553 28.4514C15.8827 28.4514 14.253 26.6799 14.253 24.5006C14.253 22.3213 15.8261 20.5342 17.849 20.5342C19.872 20.5342 21.4891 22.3213 21.4545 24.5006C21.4199 26.6799 19.8657 28.4514 17.8553 28.4514ZM31.1446 28.4514C29.1688 28.4514 27.5454 26.6799 27.5454 24.5006C27.5454 22.3213 29.1185 20.5342 31.1446 20.5342C33.1707 20.5342 34.7753 22.3213 34.7407 24.5006C34.706 26.6799 33.155 28.4514 31.1446 28.4514Z" fill="#BCBFC0"/>
</svg>
