<svg width="34" height="33" viewBox="0 0 34 33" fill="none" xmlns="http://www.w3.org/2000/svg">
<path d="M6.50195 32.5156H27.8242C31.5156 32.5156 33.3438 30.6875 33.3438 27.0664V5.60352C33.3438 1.98242 31.5156 0.154297 27.8242 0.154297H6.50195C2.82812 0.154297 0.982422 1.96484 0.982422 5.60352V27.0664C0.982422 30.7051 2.82812 32.5156 6.50195 32.5156ZM6.53711 29.6855C4.7793 29.6855 3.8125 28.7539 3.8125 26.9258V5.74414C3.8125 3.91602 4.7793 2.98438 6.53711 2.98438H27.7891C29.5293 2.98438 30.5137 3.91602 30.5137 5.74414V26.9258C30.5137 28.7539 29.5293 29.6855 27.7891 29.6855H6.53711ZM22.6738 20.668C23.4473 20.668 23.9746 20.0703 23.9746 19.2617V10.9648C23.9746 9.92773 23.3945 9.52344 22.498 9.52344H14.166C13.3398 9.52344 12.8125 10.0332 12.8125 10.8066C12.8125 11.5801 13.3574 12.0898 14.2012 12.0898H17.4004L20.002 11.8086L17.2598 14.3574L10.7734 20.8438C10.5273 21.0898 10.3691 21.4414 10.3691 21.793C10.3691 22.584 10.8789 23.0938 11.6523 23.0938C12.0742 23.0938 12.4082 22.9355 12.6543 22.6895L19.123 16.2207L21.6543 13.5137L21.3906 16.2559V19.2969C21.3906 20.123 21.9004 20.668 22.6738 20.668Z" fill="#2C2C2C"/>
</svg>
